<svg xmlns="http://www.w3.org/2000/svg" width="18" height="18.069" viewBox="0 0 18 18.069">
  <path id="WhatsApp" d="M18,8.779A8.85,8.85,0,0,1,4.892,16.455L0,18.011l1.6-4.7A8.675,8.675,0,0,1,.327,8.779,8.836,8.836,0,1,1,18,8.779ZM9.163,1.408a7.408,7.408,0,0,0-7.43,7.371A7.293,7.293,0,0,0,3.148,13.1l-.929,2.737,2.854-.907A7.436,7.436,0,0,0,16.59,8.779,7.409,7.409,0,0,0,9.163,1.408ZM13.625,10.8c-.055-.09-.2-.144-.415-.25s-1.282-.628-1.48-.7-.344-.108-.488.108-.56.7-.685.839-.253.162-.47.054A5.928,5.928,0,0,1,8.347,9.782,6.48,6.48,0,0,1,7.141,8.3c-.126-.215-.013-.331.095-.439s.217-.25.325-.376a1.438,1.438,0,0,0,.217-.36.392.392,0,0,0-.018-.376c-.054-.108-.488-1.165-.667-1.6s-.36-.36-.488-.36-.271-.018-.415-.018a.8.8,0,0,0-.578.268,2.4,2.4,0,0,0-.759,1.8,4.158,4.158,0,0,0,.884,2.223,8.853,8.853,0,0,0,3.7,3.244c2.2.86,2.2.573,2.6.537A2.191,2.191,0,0,0,13.5,11.825,1.8,1.8,0,0,0,13.625,10.8Z" transform="translate(0 0.058)" fill="#133461"/>
</svg>
