<svg id="Group_8642" data-name="Group 8642" xmlns="http://www.w3.org/2000/svg" xmlns:xlink="http://www.w3.org/1999/xlink" width="222.643" height="53" viewBox="0 0 222.643 53">
  <defs>
    <clipPath id="clip-path">
      <rect id="Rectangle_3651" data-name="Rectangle 3651" width="222.643" height="53" fill="none"/>
    </clipPath>
  </defs>
  <path id="Path_19217" data-name="Path 19217" d="M97.829,16.6h29.064v7.24H116.551V49.044h-8.427V23.838H97.829Z" transform="translate(-38.05 -6.456)" fill="#f0f0f0"/>
  <path id="Path_19218" data-name="Path 19218" d="M156.483,16.6h25.473v6.843H164.91v5.915H179.13v5.915H164.91V42.2h17.045v6.843H156.483Z" transform="translate(-60.863 -6.456)" fill="#f0f0f0"/>
  <path id="Path_19219" data-name="Path 19219" d="M227.089,32.27l13.55,16.775H230.2L219.955,36.022H217.7V49.044h-8.427V16.6H217.7V29.4h1.724l9.72-12.8h10.007Z" transform="translate(-81.397 -6.456)" fill="#f0f0f0"/>
  <g id="Group_8643" data-name="Group 8643" transform="translate(0 0)">
    <g id="Group_8642-2" data-name="Group 8642" clip-path="url(#clip-path)">
      <path id="Path_19220" data-name="Path 19220" d="M269.353,32.478a9.251,9.251,0,0,0,.694,3.576,8.612,8.612,0,0,0,1.963,2.914,9.5,9.5,0,0,0,3.016,1.965,9.932,9.932,0,0,0,3.855.728,11.086,11.086,0,0,0,4.908-1.06,12.673,12.673,0,0,0,3.807-2.826l6.559,4.5a18.9,18.9,0,0,1-5.961,4.745,21.411,21.411,0,0,1-4.261,1.611,19.412,19.412,0,0,1-5,.618,20.4,20.4,0,0,1-7.4-1.3,17.569,17.569,0,0,1-5.793-3.576,16.462,16.462,0,0,1-3.782-5.319,15.9,15.9,0,0,1-1.365-6.577A15.49,15.49,0,0,1,262,25.922a17.107,17.107,0,0,1,3.855-5.363,17.847,17.847,0,0,1,5.746-3.6,19.286,19.286,0,0,1,7.134-1.3,19,19,0,0,1,8.475,1.854,17.34,17.34,0,0,1,6.224,5.033l-6.751,4.282a12.963,12.963,0,0,0-3.328-2.56,9.5,9.5,0,0,0-4.621-1.06,9.386,9.386,0,0,0-6.751,2.759,9.046,9.046,0,0,0-1.939,2.936,9.255,9.255,0,0,0-.694,3.576" transform="translate(-101.355 -6.091)" fill="#f0f0f0"/>
      <path id="Path_19221" data-name="Path 19221" d="M322.671,16.6h25.472v6.843H331.1v5.915h14.22v5.915H331.1V42.2h17.045v6.843H322.671Z" transform="translate(-125.501 -6.456)" fill="#f0f0f0"/>
      <path id="Path_19222" data-name="Path 19222" d="M0,0V53H18.622V49.534H3.466V3.463H49.537V49.534H34.38V53H53V0Z" transform="translate(0 0)" fill="#f0f0f0"/>
      <path id="Path_19223" data-name="Path 19223" d="M36.044,16.606H16.468v9.539h.582Q17.572,18,24.319,18h3.564V49.046l10.008-4.6V16.608H36.044Z" transform="translate(-6.405 -6.459)" fill="#f0f0f0"/>
      <path id="Path_19224" data-name="Path 19224" d="M64.012,26.145h.581V16.607H55.738V18h1q6.748,0,7.271,8.142" transform="translate(-21.679 -6.459)" fill="#f0f0f0"/>
    </g>
  </g>
</svg>
